<?xml version="1.0" encoding="UTF-8" standalone="no"?><!DOCTYPE svg PUBLIC "-//W3C//DTD SVG 1.1//EN" "http://www.w3.org/Graphics/SVG/1.1/DTD/svg11.dtd"><svg width="100%" height="100%" viewBox="0 0 41 67" version="1.1" xmlns="http://www.w3.org/2000/svg" xmlns:xlink="http://www.w3.org/1999/xlink" xml:space="preserve" xmlns:serif="http://www.serif.com/" style="fill-rule:evenodd;clip-rule:evenodd;stroke-linejoin:round;stroke-miterlimit:1.41421;"><path d="M40.6,37.6l-12.4,0l0,19.2c0,0.5 -0.1,0.9 -0.4,1.3l-5.8,7.8c-0.8,1.1 -2.6,1.1 -3.4,0l-5.8,-7.8c-0.3,-0.4 -0.4,-0.8 -0.4,-1.3l0,-19.2l-12.4,0l0,-15.8l12.4,0l0,-13.9c0,-4.4 3.5,-7.9 7.9,-7.9c4.4,0 7.9,3.5 7.9,7.9l0,13.9l12.4,0l0,15.8Zm-20.3,24.5l4.3,-5.8l0,-18.7l-8.5,0l0,18.7l4.2,5.8Z" style="fill-rule:nonzero;"/></svg>