<?xml version="1.0" encoding="UTF-8" standalone="no"?><!DOCTYPE svg PUBLIC "-//W3C//DTD SVG 1.1//EN" "http://www.w3.org/Graphics/SVG/1.1/DTD/svg11.dtd"><svg width="100%" height="100%" viewBox="0 0 720 1161" version="1.1" xmlns="http://www.w3.org/2000/svg" xmlns:xlink="http://www.w3.org/1999/xlink" xml:space="preserve" xmlns:serif="http://www.serif.com/" style="fill-rule:evenodd;clip-rule:evenodd;stroke-linejoin:round;stroke-miterlimit:1.41421;"><g><clipPath id="_clip1"><path d="M393.424,1160.15l-71.75,-0.01c-31.85,-0.65 -50.95,-3.96 -61.92,-10.71c-31.28,-19.28 -70.01,-48.56 -76.87,-78.55c-5.95,-26.03 -26.25,-127.564 -45.25,-226.392c-12.32,-53.012 -57.94,-303.416 -77,-408.688c-14.94,-82.562 -30.46,-169.221 -42.58,-237.75c-5.63,-31.834 -10.27,-58.322 -13.42,-76.599c-1.61,-9.324 -2.83,-16.535 -3.64,-21.436c-0.41,-2.519 -0.72,-4.459 -0.92,-5.779c-0.4,-2.664 -0.77,-5.182 1.3,-7.795l2.25,-2.836l6.65,-0.002l2.18,2.094c19.1,18.344 31.47,24.535 49,24.535c5.17,0 11,-0.486 18.91,-1.578c24.43,-3.414 41.06,-17.559 57.14,-31.238c16.05,-13.657 32.64,-27.776 56.3,-30.692c2.14,-0.261 4.45,-0.392 6.85,-0.392c11.47,0 25.1,2.918 42.35,6.613c27,5.785 63.96,13.703 114.43,14.674l0.13,-0.002c50.62,-0.947 87.63,-8.877 114.66,-14.666c17.22,-3.692 30.83,-6.608 42.3,-6.608c2.44,0 4.68,0.127 6.85,0.391c23.66,2.918 40.259,17.037 56.31,30.693c16.08,13.68 32.7,27.825 57.15,31.241c7.89,1.09 13.72,1.576 18.9,1.576c17.53,0 29.9,-6.197 49.02,-24.557l2.17,-2.092l6.65,-0.002l2.25,2.838c2.08,2.614 1.7,5.131 1.3,7.795c-0.19,1.321 -0.5,3.26 -0.92,5.782c-0.8,4.898 -2.02,12.111 -3.63,21.435c-3.15,18.273 -7.79,44.763 -13.42,76.603c-12.12,68.494 -27.64,155.153 -42.6,237.756c-19.07,105.363 -64.77,356.121 -77.04,408.838c-13.671,62.418 -25.56,124.801 -34.23,170.352c-5.12,26.868 -8.82,46.278 -11.02,55.898c-6.86,30.01 -45.57,59.28 -76.84,78.55c-10.97,6.75 -30.06,10.06 -61.92,10.71l-0.08,0Z"/></clipPath><g clip-path="url(#_clip1)"><path d="M393.664,1160.15l-71.75,-0.01c-31.86,-0.65 -50.96,-3.96 -61.92,-10.71c-31.28,-19.28 -70.01,-48.56 -76.87,-78.55c-5.95,-26.03 -26.25,-127.564 -45.25,-226.392c-12.32,-53.012 -57.94,-303.416 -77,-408.688c-14.94,-82.562 -30.47,-169.221 -42.59,-237.75c-5.63,-31.834 -10.27,-58.322 -13.42,-76.599c-1.6,-9.324 -2.83,-16.535 -3.63,-21.436c-0.42,-2.519 -0.73,-4.459 -0.92,-5.779c-0.4,-2.664 -0.78,-5.182 1.3,-7.795l2.25,-2.836l6.64,-0.002l2.18,2.094c19.11,18.344 31.47,24.535 49,24.535c5.18,0 11.01,-0.486 18.91,-1.578c24.44,-3.414 41.06,-17.559 57.14,-31.238c16.05,-13.657 32.65,-27.776 56.3,-30.692c2.15,-0.261 4.45,-0.392 6.86,-0.392c11.47,0 25.09,2.918 42.34,6.613c27,5.785 63.96,13.703 114.44,14.674l0.13,-0.002c50.61,-0.947 87.62,-8.877 114.65,-14.666c17.23,-3.692 30.84,-6.608 42.3,-6.608c2.44,0 4.68,0.127 6.85,0.391c23.67,2.918 40.269,17.037 56.31,30.693c16.08,13.68 32.71,27.825 57.15,31.241c7.89,1.09 13.73,1.576 18.9,1.576c17.53,0 29.91,-6.197 49.02,-24.557l2.18,-2.092l6.64,-0.002l2.26,2.838c2.07,2.614 1.7,5.131 1.3,7.795c-0.2,1.321 -0.51,3.26 -0.92,5.782c-0.81,4.898 -2.03,12.111 -3.64,21.435c-3.15,18.273 -7.79,44.763 -13.42,76.603c-12.11,68.494 -27.64,155.153 -42.59,237.756c-19.08,105.363 -64.77,356.121 -77.05,408.838c-13.67,62.418 -25.55,124.801 -34.23,170.352c-5.12,26.868 -8.82,46.278 -11.02,55.898c-6.86,30.01 -45.57,59.28 -76.83,78.55c-10.97,6.75 -30.07,10.06 -61.92,10.71l-0.08,0Z" style="fill:#009036;fill-rule:nonzero;"/><path d="M448.194,988.041c-0.04,6.794 -5.45,12.271 -12.07,12.233l-163,-0.942c-6.63,-0.038 -11.97,-5.578 -11.93,-12.372l-23.51,-950.641c0.04,-6.794 5.45,-12.271 12.07,-12.232l221.33,1.278c6.63,0.038 11.97,5.578 11.93,12.372l-34.82,950.304Z" style="fill:#009ee0;"/><path d="M607.554,12.155l-112.4,1093.15l223.86,-1101.17l-111.46,8.019l0,0.001Z" style="fill:#009ee0;"/><path d="M113.424,9.3l99.75,1094.38l-211.11,-1103.68l111.36,9.306l0,-0.006Z" style="fill:#009ee0;"/></g></g></svg>